<?xml version="1.0" encoding="UTF-8" standalone="no"?>
<!-- Generator: Adobe Illustrator 15.0.0, SVG Export Plug-In . SVG Version: 6.00 Build 0)  -->

<svg
   version="1.1"
   id="Layer_2"
   x="0px"
   y="0px"
   width="501.26123"
   height="216.77881"
   viewBox="0 0 501.26124 216.77881"
   enable-background="new 0 0 344.939 306.612"
   xml:space="preserve"
   sodipodi:docname="tilint_logo.svg"
   inkscape:version="1.4.2 (ebf0e940, 2025-05-08)"
   xmlns:inkscape="http://www.inkscape.org/namespaces/inkscape"
   xmlns:sodipodi="http://sodipodi.sourceforge.net/DTD/sodipodi-0.dtd"
   xmlns="http://www.w3.org/2000/svg"
   xmlns:svg="http://www.w3.org/2000/svg"><defs
   id="defs4"><filter
     inkscape:label="Fast Crop"
     inkscape:auto-region="false"
     inkscape:menu="Fill and Transparency"
     inkscape:menu-tooltip="Does not filter but adds a filter region"
     style="color-interpolation-filters:sRGB"
     id="filter4"><feColorMatrix
       type="saturate"
       values="1"
       id="feColorMatrix4" /></filter><filter
     inkscape:label="Fast Crop"
     inkscape:auto-region="false"
     inkscape:menu="Fill and Transparency"
     inkscape:menu-tooltip="Does not filter but adds a filter region"
     style="color-interpolation-filters:sRGB"
     id="filter5"><feColorMatrix
       type="saturate"
       values="1"
       id="feColorMatrix5" /></filter></defs><sodipodi:namedview
   id="namedview4"
   pagecolor="#ffffff"
   bordercolor="#000000"
   borderopacity="0.25"
   inkscape:showpageshadow="2"
   inkscape:pageopacity="0.0"
   inkscape:pagecheckerboard="0"
   inkscape:deskcolor="#d1d1d1"
   inkscape:zoom="0.89720265"
   inkscape:cx="140.4365"
   inkscape:cy="201.73815"
   inkscape:window-width="1712"
   inkscape:window-height="1069"
   inkscape:window-x="0"
   inkscape:window-y="38"
   inkscape:window-maximized="0"
   inkscape:current-layer="Layer_2" />
<path
   d="m 359.63421,18.064899 h -39.022 -59.777 c 0,0 -7.965,0 -7.965,7.966 v 29.23 c 0,0 0,7.966 7.965,7.966 h 37.195 v 98.291001 14.615 14.615 c 0,0 0,7.966 7.967,7.966 h 14.614 22.581 V 84.000899 h 0.023 c 0.098,-9.586 6.183,-17.682 14.676,-20.864 -9.198,-3.26 -15.827,-11.949 -15.827,-22.266 0,-10.957 7.472,-20.088 17.57,-22.806 m 119.046,172.684001 v -29.23 c 0,0 0,-7.966 -7.966,-7.966 h -37.196 v -98.292001 -14.615 -14.615 c 0,0 0,-7.966 -7.966,-7.966 h -14.616 -39.023 c 10.099,2.718 17.571,11.849 17.571,22.806 0,10.317 -6.629,19.006 -15.827,22.266 8.492,3.182 14.578,11.278 14.675,20.864 h 0.024 V 198.7139 h 22.58 59.778 c 0,0 7.966,0 7.966,-7.965"
   id="path1"
   style="filter:url(#filter4)" />


<g
   id="g4"
   transform="translate(-34.2406,-102.85249)"
   style="filter:url(#filter5)"><path
     d="m 153.663,261.026 h -3.948 v -19.74 h -5.878 v 14.345 c 0,1.755 -0.264,3.027 -0.79,3.86 -0.658,1.009 -1.843,1.535 -3.509,1.535 h -2.939 v -3.29 h 0.658 c 0.921,0 1.535,-0.088 1.842,-0.263 0.526,-0.308 0.79,-0.922 0.79,-1.843 v -14.345 h -3.202 v -3.291 h 16.977 v 23.032 z m 10.613,0 h -3.992 v -19.74 h -2.764 v -3.291 h 6.756 z m 11.273,0 h -7.283 v -3.29 h 3.291 v -16.45 h -3.027 v -3.291 h 7.02 v 23.031 z m 10.615,0 h -3.992 v -19.74 h -2.764 v -3.291 h 6.756 z m 15.221,0 h -3.949 v -16.231 c 0,-2.325 -0.701,-3.509 -2.062,-3.509 h -5.527 v -3.291 h 5.483 c 4.036,0 6.055,2.325 6.055,6.932 z m 21.011,0 h -3.948 v -19.74 h -5.878 v 14.345 c 0,1.755 -0.264,3.027 -0.79,3.86 -0.658,1.009 -1.842,1.535 -3.51,1.535 h -2.939 v -3.29 h 0.658 c 0.922,0 1.536,-0.088 1.843,-0.263 0.526,-0.308 0.79,-0.922 0.79,-1.843 v -14.345 h -3.203 v -3.291 h 16.978 v 23.032 z m 19.08,0 h -14.038 v -3.29 h 10.09 v -12.941 c 0,-2.325 -0.701,-3.509 -2.062,-3.509 h -4.08 v 9.168 h -3.948 v -12.459 h 7.984 c 4.036,0 6.054,2.325 6.054,6.932 z"
     id="path2" /><path
     d="m 262.267,237.995 -3.773,23.031 h -5.176 l 3.334,-19.258 h -5.747 v -7.721 h 4.913 v 3.947 h 6.449 z m 7.368,13.073 h -4.957 v -13.073 h 4.957 z m 17.283,9.958 h -4.957 v -19.258 h -2.72 v 14.871 c 0,2.939 -1.448,4.387 -4.3,4.387 h -2.588 v -3.772 c 0.395,0.044 0.702,0.044 0.877,0.044 0.702,0 1.054,-0.351 1.054,-1.097 v -14.433 h -1.755 v -3.773 h 14.389 z"
     id="path3" /><path
     d="M 72.15,296.775 H 57.585 v -23.031 h 7.94 c 4.431,0 6.624,2.369 6.624,7.15 v 15.881 z m -3.904,-15.661 c 0,-2.72 -0.878,-4.08 -2.632,-4.08 h -4.08 v 16.451 h 6.712 z m 14.298,5.045 h -3.948 v -9.125 h -2.808 v -3.29 h 6.756 z m 10.528,0 h -3.948 v -9.125 h -2.807 v -3.29 h 6.755 z m 9.87,10.616 -0.308,-6.317 h -0.263 c -0.482,1.975 -1.01,3.466 -1.623,4.519 -0.966,1.623 -2.238,2.457 -3.817,2.457 v -4.124 c 1.185,0 2.369,-1.097 3.554,-3.29 1.053,-1.974 1.579,-3.597 1.579,-4.957 0,-0.921 -0.044,-2.237 -0.132,-3.992 -0.088,-1.799 -0.131,-3.114 -0.131,-4.036 h -4.124 v -3.29 h 7.809 c 0,2.325 0.088,4.826 0.263,7.502 l 0.57,8.379 c 0.176,2.896 0.264,5.265 0.264,7.15 h -3.641 z m 13.86,0 h -3.992 v -19.741 h -2.764 v -3.29 h 6.756 z m 16.976,-23.031 -6.142,23.031 h -3.86 l 5.177,-19.741 h -8.335 v -9.738 h 3.904 v 6.448 z m 8.816,23.031 h -3.992 v -19.741 h -2.764 v -3.29 h 6.756 z m 15.485,-7.37 c 0,2.237 -0.527,4.036 -1.58,5.309 -1.141,1.359 -2.807,2.062 -5.001,2.062 h -4.913 v -3.29 h 4.957 c 1.711,0 2.588,-1.36 2.588,-4.08 v -8.554 c 0,-2.545 -0.877,-3.817 -2.588,-3.817 h -4.957 v -3.29 h 4.913 c 4.388,0 6.581,2.413 6.581,7.194 z m 10.174,-3.246 h -3.948 v -9.125 h -2.808 v -3.29 h 6.756 z m 19.653,-5.352 c 0,1.447 -0.088,2.676 -0.219,3.685 0,3.378 -0.527,6.098 -1.624,8.159 -1.403,2.765 -3.641,4.124 -6.668,4.124 h -5.177 l -1.228,-23.031 h 14.915 v 7.063 z m -3.948,-3.773 h -6.844 l 0.79,16.451 h 1.843 c 2.808,0 4.211,-4.211 4.211,-12.678 z m 22.371,19.741 h -14.038 v -3.29 h 10.09 v -12.941 c 0,-2.325 -0.702,-3.51 -2.063,-3.51 h -4.079 v 9.169 h -3.948 v -12.459 h 7.984 c 4.035,0 6.054,2.325 6.054,6.932 z m 18.728,7.019 h -3.948 v -26.761 h -2.808 v -3.29 h 6.756 z m 10.614,-7.019 h -3.991 v -19.741 h -2.764 v -3.29 h 6.755 z m 19.346,0 h -3.992 v -15.924 c 0,-2.545 -1.01,-3.817 -3.027,-3.817 h -3.158 v 19.741 h -3.948 v -23.031 h 7.019 c 4.738,0 7.107,2.413 7.107,7.194 v 15.837 z m 16.58,0 h -12.81 v -3.29 h 6.931 v -16.451 h -6.931 v -3.29 h 10.879 v 19.741 h 1.931 z m 19.432,0 h -4.167 l -3.378,-7.633 c -0.395,-0.966 -1.097,-2.369 -2.105,-4.256 -0.483,0 -0.878,0.439 -1.185,1.36 -0.22,0.658 -0.396,1.755 -0.483,3.334 l -0.438,7.194 h -3.904 l 0.438,-7.94 c 0.088,-1.359 0.308,-2.5 0.702,-3.422 0.308,-0.745 0.79,-1.447 1.36,-2.018 0.701,-0.658 1.403,-1.009 2.149,-1.009 -0.878,-1.316 -1.799,-2.72 -2.764,-4.256 -1.185,-1.842 -2.062,-3.29 -2.72,-4.387 h 4.605 c 1.975,3.027 3.686,5.967 5.133,8.817 0.57,0 1.053,-0.657 1.36,-2.018 0.044,-0.132 0.176,-1.053 0.395,-2.676 l 0.57,-4.124 h 3.729 l -0.658,5.615 c -0.176,1.404 -0.57,2.632 -1.141,3.686 -0.746,1.403 -1.755,2.105 -2.939,2.105 0.658,1.097 1.404,2.632 2.325,4.65 z"
     id="path4" /></g>
</svg>
